<svg viewBox="15 40 78 70" fill="none" xmlns="http://www.w3.org/2000/svg">
  <path d="M 26.284 86.821 C 26.284 86.269 26.732 85.821 27.284 85.821 L 75.284 85.821 C 76.054 85.821 76.535 86.654 76.15 87.321 C 75.971 87.63 75.641 87.821 75.284 87.821 L 27.284 87.821 C 26.732 87.821 26.284 87.373 26.284 86.821 Z M 26.284 91.821 C 26.284 91.269 26.732 90.821 27.284 90.821 L 67.284 90.821 C 68.054 90.821 68.535 91.654 68.15 92.321 C 67.971 92.63 67.641 92.821 67.284 92.821 L 27.284 92.821 C 26.732 92.821 26.284 92.373 26.284 91.821 Z" fill="var(--base-500)"></path>
  <rect x="20.5" y="43.5" width="67" height="62" rx="1.5" fill="var(--solid)" stroke="var(--base-400)"></rect>
  <rect x="22.847" y="54.998" width="62.389" height="18.284" style="stroke: rgb(0, 0, 0); fill: var(--emphasis)"></rect><path d="M 37.276 71.197 L 66.409 71.197 C 68.712 71.197 70.575 70.501 70.575 69.641 L 70.575 58.753 C 70.575 57.893 68.712 57.197 66.409 57.197 L 37.276 57.197 C 34.972 57.197 33.11 57.893 33.11 58.753 L 33.11 69.641 C 33.11 70.501 34.972 71.197 37.276 71.197 Z M 52.305 61.475 C 52.331 62.373 51.386 62.963 50.604 62.536 C 50.22 62.327 49.985 61.916 49.998 61.475 C 50.024 60.577 51.002 60.044 51.758 60.516 C 52.088 60.722 52.294 61.083 52.305 61.475 Z M 47.833 71.197 L 63.306 62.641 L 70.339 66.531 M 41.163 70.724 L 35.725 62.168 L 33.253 66.058" fill="transparent" stroke="var(--base-500)" stroke-width="1.2" stroke-linecap="round" stroke-linejoin="round" style=""></path>
  <path d="M 26 76 C 26 75.448 26.448 75 27 75 L 75 75 C 75.77 75 76.251 75.833 75.866 76.5 C 75.687 76.809 75.357 77 75 77 L 27 77 C 26.448 77 26 76.552 26 76 Z M 26 81 C 26 80.448 26.448 80 27 80 L 67 80 C 67.77 80 68.251 80.833 67.866 81.5 C 67.687 81.809 67.357 82 67 82 L 27 82 C 26.448 82 26 81.552 26 81 Z" fill="var(--base-500)"></path>
  <path d="M26 98a1 1 0 011-1h11a1 1 0 110 2H27a1 1 0 01-1-1z" fill="var(--base-400)" stroke="var(--base-400)" ></path>
  <path d="M 26 50.205 C 26 48.662 26.672 47.41 27.5 47.41 L 59.5 47.41 C 60.655 47.41 61.376 49.739 60.799 51.603 C 60.531 52.467 60.036 53 59.5 53 L 27.5 53 C 26.672 53 26 51.749 26 50.205 Z" fill="var(--base-500)" style=""></path>
  <path d="M 72.947 52.962 L 77.121 52.962 C 77.451 52.962 77.716 52.694 77.716 52.363 L 77.716 48.192 C 77.716 47.862 77.451 47.594 77.121 47.594 L 72.947 47.594 C 72.617 47.594 72.349 47.862 72.349 48.192 L 72.349 52.363 C 72.349 52.694 72.617 52.962 72.947 52.962 Z M 72.947 52.962 L 76.225 49.682 L 77.716 51.172 M 74.437 49.235 C 74.447 49.578 74.081 49.804 73.778 49.641 C 73.628 49.56 73.537 49.403 73.542 49.235 C 73.553 48.89 73.931 48.687 74.224 48.868 C 74.354 48.947 74.432 49.084 74.437 49.235 Z" fill="transparent" stroke="var(--base-500)" stroke-linecap="round" stroke-linejoin="round" style="stroke-width: 0.5px;"></path>
  <path d="M 60.312 98.229 C 60.312 97.676 60.759 97.229 61.312 97.229 L 72.312 97.229 C 73.081 97.229 73.563 98.062 73.178 98.729 C 72.999 99.038 72.669 99.229 72.312 99.229 L 61.312 99.229 C 60.759 99.229 60.312 98.781 60.312 98.229 Z" fill="var(--base-400)" stroke="var(--base-400)" ></path>
  <path d="M 42.847 98.307 C 42.847 97.754 43.294 97.307 43.847 97.307 L 54.847 97.307 C 55.616 97.307 56.098 98.14 55.713 98.807 C 55.534 99.116 55.204 99.307 54.847 99.307 L 43.847 99.307 C 43.294 99.307 42.847 98.859 42.847 98.307 Z" fill="var(--base-400)" stroke="var(--base-400)" ></path>
</svg>