<svg viewBox="15 40 78 70" fill="none" xmlns="http://www.w3.org/2000/svg">
  <rect x="16.021" y="42.157" width="73.532" height="21.11" style="stroke: rgb(0, 0, 0); fill: var(--emphasis);"/>
  <path d="M 34.278 53.792 C 34.278 53.24 34.726 52.792 35.278 52.792 L 83.278 52.792 C 84.048 52.792 84.529 53.625 84.144 54.292 C 83.965 54.601 83.635 54.792 83.278 54.792 L 35.278 54.792 C 34.726 54.792 34.278 54.344 34.278 53.792 Z M 34.278 58.792 C 34.278 58.24 34.726 57.792 35.278 57.792 L 75.278 57.792 C 76.048 57.792 76.529 58.625 76.144 59.292 C 75.965 59.601 75.635 59.792 75.278 59.792 L 35.278 59.792 C 34.726 59.792 34.278 59.344 34.278 58.792 Z" fill="var(--base-500)"/>
  <path d="M 34.435 48.262 C 34.435 47.022 35.385 46.016 36.554 46.016 L 81.755 46.016 C 83.386 46.016 84.405 47.886 83.589 49.385 C 83.21 50.078 82.512 50.507 81.755 50.507 L 36.554 50.507 C 35.385 50.507 34.435 49.502 34.435 48.262 Z" fill="var(--solid-900)" style=""/>
  <path d="M 19.698 58.691 L 29.61 58.691 C 30.393 58.691 31.023 58.085 31.023 57.338 L 31.023 47.925 C 31.023 47.179 30.393 46.573 29.61 46.573 L 19.698 46.573 C 18.916 46.573 18.279 47.179 18.279 47.925 L 18.279 57.338 C 18.279 58.085 18.916 58.691 19.698 58.691 Z M 19.698 58.691 L 27.482 51.287 L 31.023 54.65 M 23.236 50.278 C 23.26 51.051 22.392 51.562 21.673 51.194 C 21.316 51.013 21.1 50.657 21.112 50.278 C 21.137 49.497 22.035 49.04 22.732 49.448 C 23.04 49.628 23.224 49.937 23.236 50.278 Z" fill="white" stroke="var(--base-500)" stroke-linecap="round" stroke-linejoin="round" style="stroke-width: 0.5px;"/>
  <path d="M 34.028 75.222 C 34.028 74.67 34.476 74.222 35.028 74.222 L 83.028 74.222 C 83.798 74.222 84.279 75.055 83.894 75.722 C 83.715 76.031 83.385 76.222 83.028 76.222 L 35.028 76.222 C 34.476 76.222 34.028 75.774 34.028 75.222 Z M 34.028 80.222 C 34.028 79.67 34.476 79.222 35.028 79.222 L 75.028 79.222 C 75.798 79.222 76.279 80.055 75.894 80.722 C 75.715 81.031 75.385 81.222 75.028 81.222 L 35.028 81.222 C 34.476 81.222 34.028 80.774 34.028 80.222 Z" fill="var(--base-500)"/>
  <path d="M 34.185 69.692 C 34.185 68.452 35.135 67.446 36.304 67.446 L 81.505 67.446 C 83.136 67.446 84.155 69.316 83.339 70.815 C 82.96 71.508 82.262 71.937 81.505 71.937 L 36.304 71.937 C 35.135 71.937 34.185 70.932 34.185 69.692 Z" fill="var(--solid-900)" style=""/>
  <path d="M 19.448 80.121 L 29.36 80.121 C 30.143 80.121 30.773 79.515 30.773 78.768 L 30.773 69.355 C 30.773 68.609 30.143 68.003 29.36 68.003 L 19.448 68.003 C 18.666 68.003 18.029 68.609 18.029 69.355 L 18.029 78.768 C 18.029 79.515 18.666 80.121 19.448 80.121 Z M 19.448 80.121 L 27.232 72.717 L 30.773 76.08 M 22.986 71.708 C 23.01 72.481 22.142 72.992 21.423 72.624 C 21.066 72.443 20.85 72.087 20.862 71.708 C 20.887 70.927 21.785 70.47 22.482 70.878 C 22.79 71.058 22.974 71.367 22.986 71.708 Z" fill="white" stroke="var(--base-500)" stroke-linecap="round" stroke-linejoin="round" style="stroke-width: 0.5px;"/>
  <path d="M 33.176 96.042 C 33.176 95.49 33.624 95.042 34.176 95.042 L 82.176 95.042 C 82.946 95.042 83.427 95.875 83.042 96.542 C 82.863 96.851 82.533 97.042 82.176 97.042 L 34.176 97.042 C 33.624 97.042 33.176 96.594 33.176 96.042 Z M 33.176 101.042 C 33.176 100.49 33.624 100.042 34.176 100.042 L 74.176 100.042 C 74.946 100.042 75.427 100.875 75.042 101.542 C 74.863 101.851 74.533 102.042 74.176 102.042 L 34.176 102.042 C 33.624 102.042 33.176 101.594 33.176 101.042 Z" fill="var(--base-500)"/>
  <path d="M 33.333 90.512 C 33.333 89.272 34.283 88.266 35.452 88.266 L 80.653 88.266 C 82.284 88.266 83.303 90.136 82.487 91.635 C 82.108 92.328 81.41 92.757 80.653 92.757 L 35.452 92.757 C 34.283 92.757 33.333 91.752 33.333 90.512 Z" fill="var(--solid-900)" style=""/>
  <path d="M 18.596 100.941 L 28.508 100.941 C 29.291 100.941 29.921 100.335 29.921 99.588 L 29.921 90.175 C 29.921 89.429 29.291 88.823 28.508 88.823 L 18.596 88.823 C 17.814 88.823 17.177 89.429 17.177 90.175 L 17.177 99.588 C 17.177 100.335 17.814 100.941 18.596 100.941 Z M 18.596 100.941 L 26.38 93.537 L 29.921 96.9 M 22.134 92.528 C 22.158 93.301 21.29 93.812 20.571 93.444 C 20.214 93.263 19.998 92.907 20.01 92.528 C 20.035 91.747 20.933 91.29 21.63 91.698 C 21.938 91.878 22.122 92.187 22.134 92.528 Z" fill="white" stroke="var(--base-500)" stroke-linecap="round" stroke-linejoin="round" style="stroke-width: 0.5px;"/>
</svg>